<?xml version="1.0" encoding="utf-8"?>
<!-- Generator: Adobe Illustrator 21.0.1, SVG Export Plug-In . SVG Version: 6.00 Build 0)  -->
<svg version="1.1" id="Layer_1" xmlns="http://www.w3.org/2000/svg" xmlns:xlink="http://www.w3.org/1999/xlink" x="0px" y="0px"
	 viewBox="0 0 752 450" style="enable-background:new 0 0 752 450;" xml:space="preserve">
<style type="text/css">
	.st0{fill:#4F9D4D;}
	.st1{fill:#6FBF69;}
	.st2{fill:#3BB44A;}
	.st3{opacity:0.62;}
	.st4{opacity:0.25;fill:#F5EA14;}
	.st5{fill:#D8DF25;}
	.st6{fill:#FFFFFF;}
	.st7{fill:#E5E5E4;}
	.st8{fill:#333333;}
	.st9{fill:#FFF6AE;}
	.st10{fill:#F5B561;}
	.st11{fill:#39A849;}
</style>
<g>
	<path class="st0" d="M486.9,54.4v144.9c0,34.9-27.1,64-62,64H255.5V54.4c0,0,96.5-6.4,115.7,15.5C390.4,47.9,486.9,54.4,486.9,54.4
		z"/>
</g>
<path class="st1" d="M259,57.6l-0.4,201.8l114.2,0.4l-1.4-186.5C350.2,48.8,259,57.6,259,57.6z"/>
<path class="st2" d="M484.3,57.5l-0.5,145.2c0,32.8-27.1,57.1-60,57.1l-51-0.1l-1.5-186.9C389.4,52.1,484.3,57.5,484.3,57.5z"/>
<g class="st3">
	<path class="st4" d="M372.1,182.1l0.3,77.5l-88.4-0.2v-3.3C284,215.6,323.7,182.4,372.1,182.1z"/>
</g>
<path class="st4" d="M468.7,271.8"/>
<path class="st4" d="M422.7,259.8h-50.3l0-77.3c0.5-0.3-0.4-0.3,1-0.3c44-0.3,81.9,28.9,88.5,64
	C461.9,246.2,442.4,262.4,422.7,259.8z"/>
<path class="st5" d="M372.7,182.1c-0.1,0-0.2,0-0.3,0v0H372.7z"/>
<g>
	<path class="st6" d="M353.6,174.2c-2,2-4.2,3.8-6.6,5.4C348.6,178,350.9,176,353.6,174.2z"/>
	<path class="st6" d="M365.2,138.7c0,25.4-20.6,46-46,46c-25.4,0-46-20.7-46-46c0-25.4,20.6-46,46-46
		C344.5,92.6,365.2,113.3,365.2,138.7z"/>
	<path d="M346.5,184c4.3-2.6,8.1-5.7,11.5-9.4C351.9,177.8,347.9,182.3,346.5,184z M347,179.6c2.3-1.6,4.5-3.4,6.6-5.4
		C350.9,176,348.6,178,347,179.6z"/>
</g>
<g>
	<path class="st6" d="M471.4,139.5c0,25.4-20.6,46-46,46c-25.4,0-46-20.7-46-46c0-25.4,20.6-46,46-46
		C450.7,93.5,471.4,114.1,471.4,139.5z"/>
</g>
<path class="st7" d="M470.5,142.1c0,24-19.4,43.4-43.4,43.4c-24,0-47.7-18.6-47.7-42.6c0-4.2,0.6-7.9,1.7-11.8
	c2.2,21.9,25.7,42.9,47.5,37.7c17.4-4.1,31.8-12.7,41.6-35.1C470.5,136.8,470.5,137.3,470.5,142.1z"/>
<path class="st7" d="M364.5,142.3c0,24-18.8,41.7-42.8,42.4c-26.3,0.9-47.7-18.6-47.7-42.6c0-4.2,0.6-7.9,1.7-11.8
	c2.2,21.9,25.1,37.7,47.5,37.7c19.7,0,35.8-13.5,41.1-31.5C364.5,138,364.5,140.8,364.5,142.3z"/>
<path class="st8" d="M355.2,139.7c0,17-13.7,30.7-30.7,30.7c-16.9,0-30.7-13.7-30.7-30.7c0-4.5,1-8.8,2.7-12.7
	c2.8,4,7.4,6.6,12.6,6.6c8.5,0,15.3-6.9,15.3-15.3c0-3.4-1.1-6.6-3-9.2c1-0.1,2-0.1,3-0.1C341.5,109,355.2,122.8,355.2,139.7z"/>
<path class="st8" d="M448.4,138.8c0,17-13.7,30.7-30.7,30.7c-16.9,0-30.7-13.7-30.7-30.7c0-4.5,1-8.8,2.7-12.7
	c2.8,4,7.4,6.6,12.6,6.6c8.5,0,15.3-6.9,15.3-15.3c0-3.4-1.1-6.6-3-9.2c1-0.1,2-0.1,3-0.1C434.7,108.2,448.4,121.9,448.4,138.8z"/>
<path class="st8" d="M487.9,50.8c-0.3,0-24.6-1.6-51-0.5c-3.5,0.1-6.9,0.3-10.1,0.6c-1-4.2-3.5-12.6-9.1-21
	C410.5,19,398.5,6,371.7,6c-23.9,0-37.1,13.1-43.9,24c-5.3,8.5-7.6,16.9-8.5,21c-3.9-0.3-8-0.6-12.2-0.7c-26.4-1.1-50.7,0.5-51,0.5
	l-3.2,0.2v215.7h172.8c36.1,0,65.5-30.4,65.5-67.6V51L487.9,50.8z M371.7,16.4c32.3,0,42.1,25.9,44.6,35.4
	c-21.6,2.3-37,6.7-44.9,13.2c-8.7-6.6-22.4-10.9-41.7-13C331.9,42.8,340.9,16.4,371.7,16.4z M484.3,199.1
	c0,33.4-26.3,60.7-58.6,60.7H259.8V57.5c28.5-1.6,85.5-4,109.6,14.6l1.9,1.3l3.3-2.3c21.7-16.5,81.2-15.2,109.7-13.6V199.1z"/>
<g>
	<path class="st8" d="M425.3,86.6c-29.2,0-52.9,23.8-52.9,53c0,11.4,3.7,22.1,9.8,30.7c-4.2-1.5-8.4-2-12.6-1.7
		c-2.9,0.2-5.5,0.8-8,1.7c6.5-8.8,10.4-19.7,10.4-31.5c0-29.2-23.7-53-52.9-53c-29.2,0-52.9,23.8-52.9,53s23.7,52.9,52.9,52.9
		c8.7,0,17-2.1,24.2-5.9l29,32.3l28.6-31.5c7.3,3.8,15.6,5.9,24.4,5.9c29.2,0,52.9-23.7,52.9-52.9S454.5,86.6,425.3,86.6z
		 M319.2,184.7c-25.4,0-46-20.7-46-46c0-25.4,20.6-46,46-46c25.4,0,46,20.7,46,46C365.2,164,344.5,184.7,319.2,184.7z M372.4,210.3
		l-23.1-25.7c2.9-3.2,10.4-10.2,20.7-11c8.4-0.6,17.1,2.8,25.5,11.1L372.4,210.3z M425.3,185.6c-25.4,0-46-20.7-46-46
		c0-25.4,20.6-46,46-46c25.4,0,46,20.7,46,46C471.4,164.9,450.7,185.6,425.3,185.6z"/>
	<path class="st9" d="M395.5,184.8l-23.2,25.5l-23.1-25.7c2.9-3.2,10.4-10.2,20.7-11C378.4,173.1,387,176.8,395.5,184.8z"/>
</g>
<path class="st10" d="M395.5,184.8l-23.1,25.5l0-36.7C378.9,172.8,390.6,178.9,395.5,184.8z"/>
<g>
	<path class="st11" d="M648.8,321.3l-0.1,83.9c0,0-14.2-1.8-17.6-12.2v-72.8"/>
	<path class="st11" d="M171.8,352.8c0,0,12.5,1.1,15.1-1.1c12.7-10.8,17.1-32.9,17.1-32.9c4-1.4,23.2-1,22.2,0
		c0,0-10.8,32.2-21.3,38.1c0,0,11.5,5.2,14.1,13.7c3,9.7,1.6,42.3,1.6,42.3c-9.8-3.1-18.7-11.8-18.7-11.8l-1.7-26
		c-0.9-3.5-6.8-4.3-7.5-4.3l-20.8,1.4l0.3,38.5c0,0-13.5-1.4-17.8-11.8V296.4c4.3-10.4,18-12.3,18-12.3L171.8,352.8z"/>
	<path class="st11" d="M612,360.7l0.1,5.5l-0.1-0.1c-0.8,17.8-12.4,34.2-30.4,40.1c-23.2,7.7-48.3-4.8-56-28.1s4.8-48.3,28.1-56
		c14.1-4.7,24.5-3.7,35.7,4.4l0.9,18.5c-0.3-3.1-13.6-11.5-29.2-6.3c-15.6,5.2-25.2,19.8-20,35.4c5.2,15.6,20.1,19.7,35.8,14.5
		c13.3-4.4,16.9-15.9,17.2-27.2c0.1-2-0.3-4-0.4-6l-0.5-26.2v-40.2c4.3-10.4,18.3-12.3,18.3-12.3L612,360.7L612,360.7z"/>
	<path class="st11" d="M346.7,371c-0.8-13.1,1.5-28,17.1-33.2c15.6-5.2,30.6-1.2,35.8,14.5c5.2,15.6-4.4,30.2-20,35.4
		c-15.6,5.2-28.9-3.2-29.2-6.3l0.9,18.5c11.2,8.1,21.6,9.1,35.7,4.4c23.2-7.7,35.8-32.8,28.1-56c-7.7-23.2-32.8-35.8-56-28.1
		c-17.9,6-29.6,22.3-30.4,40.1l-0.1-0.1l1.3,72.2c3.9,10.4,17.2,12.3,17.2,12.3l-0.2-46.7L346.7,371z"/>
	<path class="st11" d="M19,300.5c0,0-14.7,4.7-19,15.1v76.1c0,0,1.9,14,18.9,18.3h30.3v-17.3h-28c-3.4,0-2.2-5.6-2.2-5.6v-47.8
		l30.2,0.1v-16.6l-30.5,0L19,300.5z"/>
	<path class="st11" d="M142.2,349.1c-7.7-23.2-32.8-35.8-56-28.1c-23.2,7.7-35.8,32.8-28,56c7.7,23.2,32.8,35.8,56,28.1
		C137.4,397.4,150,372.4,142.2,349.1z M109.1,389c-14.5,4.8-30.2-3-35.1-17.6c-4.8-14.5,3-30.2,17.6-35.1c14.5-4.8,30.2,3,35,17.6
		C131.5,368.4,123.6,384.1,109.1,389z"/>
	<path class="st11" d="M316.7,349.2c-7.7-23.2-32.8-35.8-56-28.1c-23.2,7.7-35.8,32.8-28,56c7.7,23.2,32.8,35.8,56,28.1
		C311.9,397.4,324.4,372.4,316.7,349.2z M283.6,389c-14.5,4.8-30.2-3-35.1-17.6c-4.8-14.5,3-30.2,17.6-35.1c14.5-4.8,30.2,3,35,17.6
		C306,368.4,298.1,384.1,283.6,389z"/>
	<path class="st11" d="M693.1,319.4c-23.4,7-35.8,32.8-28.1,56c7.7,23.2,32.3,35.8,55.5,28c2-0.7,4.5-1.5,6.3-2.4v-19.4
		c-2.6,2.5-7,4.3-10.8,5.6c-14.5,4.8-30.2-3-35.1-17.6c-4.8-14.5,3-30.2,17.5-35c14.5-4.8,31,5,33.5,17.7l0.7,12.7l-0.1,6.5
		l0.5,29.4c6,7.4,18.9,7.5,18.9,7.5l-1.3-59.3C750.8,338.7,729.8,308.4,693.1,319.4z"/>
	
		<ellipse transform="matrix(0.9489 -0.3156 0.3156 0.9489 -62.3236 217.042)" class="st11" cx="639.1" cy="301" rx="10.1" ry="10.1"/>
	<path class="st11" d="M512.1,366.9c0.6-6,0-11.9-2.1-18c-7.7-23.2-32.8-35.6-56-27.9c-23.2,7.7-35.8,32.9-28,56.1
		c7.7,23.2,32.8,35.9,56,28.2c13.5-4.5,18.6-10.8,23.6-18.4l-11.6-8.9c-3.5,5.9-9.2,11.2-16.5,13.6c-15.6,5.2-32.5-3.6-37.7-19.2
		c-0.6-1.7-1-2.8-1.2-5.4H512.1z M458.6,334.4c15-5,31.1,3.1,37,16.9h-55.1C443.7,344.4,450.1,337.3,458.6,334.4z"/>
	<polygon class="st11" points="732.9,365.1 732.9,371.6 732.7,365.1 	"/>
</g>
</svg>
